<svg xmlns="http://www.w3.org/2000/svg" xmlns:xlink="http://www.w3.org/1999/xlink" width="398" zoomAndPan="magnify" viewBox="0 0 298.5 83.249999" height="111" preserveAspectRatio="xMidYMid meet" version="1.2"><defs><clipPath id="6f7bd5354d"><path d="M 1.085938 31 L 32 31 L 32 82.507812 L 1.085938 82.507812 Z M 1.085938 31 "/></clipPath><clipPath id="b540dd9eb1"><path d="M 50 31 L 80.617188 31 L 80.617188 82.507812 L 50 82.507812 Z M 50 31 "/></clipPath><clipPath id="9600e95184"><path d="M 19 17.300781 L 63 17.300781 L 63 81 L 19 81 Z M 19 17.300781 "/></clipPath></defs><g id="dd3bf88a7c"><g clip-rule="nonzero" clip-path="url(#6f7bd5354d)"><path style=" stroke:none;fill-rule:nonzero;fill:#ffffff;fill-opacity:1;" d="M 5.582031 67.347656 L 5.574219 31.628906 C 4.195312 31.382812 2.714844 31.234375 1.085938 31.234375 L 1.085938 71.234375 C 1.085938 71.234375 19.109375 73.347656 31.238281 82.324219 C 25.632812 75.863281 17.261719 70.503906 5.582031 67.347656 "/></g><path style=" stroke:none;fill-rule:nonzero;fill:#ffffff;fill-opacity:1;" d="M 14.679688 59.535156 L 14.652344 26.265625 C 13.25 25.582031 11.726562 24.984375 10.058594 24.5 L 10.058594 64.496094 C 10.058594 64.496094 24.652344 68.378906 34.664062 79.800781 C 30.066406 71.960938 23.558594 64.03125 14.679688 59.535156 "/><g clip-rule="nonzero" clip-path="url(#b540dd9eb1)"><path style=" stroke:none;fill-rule:nonzero;fill:#ffffff;fill-opacity:1;" d="M 76.117188 67.347656 L 76.128906 31.628906 C 77.507812 31.382812 78.988281 31.234375 80.617188 31.234375 L 80.617188 71.234375 C 80.617188 71.234375 62.59375 73.347656 50.464844 82.324219 C 56.070312 75.863281 64.441406 70.503906 76.117188 67.347656 "/></g><path style=" stroke:none;fill-rule:nonzero;fill:#ffffff;fill-opacity:1;" d="M 67.023438 59.535156 L 67.050781 26.265625 C 68.453125 25.582031 69.976562 24.984375 71.644531 24.5 L 71.644531 64.496094 C 71.644531 64.496094 57.050781 68.378906 47.039062 79.800781 C 51.636719 71.960938 58.144531 64.03125 67.023438 59.535156 "/><g clip-rule="nonzero" clip-path="url(#9600e95184)"><path style=" stroke:none;fill-rule:nonzero;fill:#ffffff;fill-opacity:1;" d="M 40.851562 39.863281 C 40.851562 39.863281 34.894531 27.359375 19.140625 17.300781 L 19.140625 57.300781 C 19.140625 57.300781 30.929688 65.078125 40.128906 80.59375 L 40.128906 59.566406 C 38.890625 59.285156 37.96875 57.9375 37.96875 56.777344 C 37.96875 55.402344 39.257812 53.902344 40.851562 53.902344 C 42.445312 53.902344 43.734375 55.402344 43.734375 56.777344 C 43.734375 57.9375 42.8125 59.285156 41.574219 59.566406 L 41.574219 80.59375 C 50.773438 65.078125 62.5625 57.300781 62.5625 57.300781 L 62.5625 17.300781 C 46.808594 27.359375 40.851562 39.863281 40.851562 39.863281 "/></g><g style="fill:#ffffff;fill-opacity:1;"><g transform="translate(96.091322, 73.898625)"><path style="stroke:none" d="M 3.109375 -6.8125 C 3.984375 -6.8125 4.769531 -6.578125 5.46875 -6.109375 L 5 -5.109375 C 4.3125 -5.523438 3.648438 -5.734375 3.015625 -5.734375 C 2.679688 -5.734375 2.414062 -5.671875 2.21875 -5.546875 C 2.019531 -5.429688 1.921875 -5.257812 1.921875 -5.03125 C 1.921875 -4.800781 2.007812 -4.609375 2.1875 -4.453125 C 2.375 -4.296875 2.601562 -4.179688 2.875 -4.109375 C 3.144531 -4.035156 3.4375 -3.941406 3.75 -3.828125 C 4.0625 -3.710938 4.351562 -3.59375 4.625 -3.46875 C 4.894531 -3.34375 5.117188 -3.144531 5.296875 -2.875 C 5.472656 -2.613281 5.5625 -2.289062 5.5625 -1.90625 C 5.5625 -1.320312 5.320312 -0.851562 4.84375 -0.5 C 4.375 -0.144531 3.765625 0.03125 3.015625 0.03125 C 2.492188 0.03125 1.992188 -0.0625 1.515625 -0.25 C 1.035156 -0.445312 0.613281 -0.707031 0.25 -1.03125 L 0.75 -2.015625 C 1.082031 -1.703125 1.453125 -1.457031 1.859375 -1.28125 C 2.273438 -1.113281 2.664062 -1.03125 3.03125 -1.03125 C 3.425781 -1.03125 3.734375 -1.101562 3.953125 -1.25 C 4.179688 -1.394531 4.296875 -1.597656 4.296875 -1.859375 C 4.296875 -2.085938 4.203125 -2.28125 4.015625 -2.4375 C 3.835938 -2.59375 3.613281 -2.707031 3.34375 -2.78125 C 3.070312 -2.851562 2.78125 -2.941406 2.46875 -3.046875 C 2.15625 -3.160156 1.863281 -3.273438 1.59375 -3.390625 C 1.320312 -3.515625 1.09375 -3.707031 0.90625 -3.96875 C 0.726562 -4.226562 0.640625 -4.546875 0.640625 -4.921875 C 0.640625 -5.492188 0.863281 -5.953125 1.3125 -6.296875 C 1.769531 -6.640625 2.367188 -6.8125 3.109375 -6.8125 Z M 3.109375 -6.8125 "/></g></g><g style="fill:#ffffff;fill-opacity:1;"><g transform="translate(103.06277, 73.898625)"><path style="stroke:none" d="M 2.03125 0 L 0.890625 0 L 0.890625 -6.765625 L 2.03125 -6.765625 Z M 2.03125 0 "/></g></g><g style="fill:#ffffff;fill-opacity:1;"><g transform="translate(106.944375, 73.898625)"><path style="stroke:none" d="M 3.109375 -6.8125 C 3.984375 -6.8125 4.769531 -6.578125 5.46875 -6.109375 L 5 -5.109375 C 4.3125 -5.523438 3.648438 -5.734375 3.015625 -5.734375 C 2.679688 -5.734375 2.414062 -5.671875 2.21875 -5.546875 C 2.019531 -5.429688 1.921875 -5.257812 1.921875 -5.03125 C 1.921875 -4.800781 2.007812 -4.609375 2.1875 -4.453125 C 2.375 -4.296875 2.601562 -4.179688 2.875 -4.109375 C 3.144531 -4.035156 3.4375 -3.941406 3.75 -3.828125 C 4.0625 -3.710938 4.351562 -3.59375 4.625 -3.46875 C 4.894531 -3.34375 5.117188 -3.144531 5.296875 -2.875 C 5.472656 -2.613281 5.5625 -2.289062 5.5625 -1.90625 C 5.5625 -1.320312 5.320312 -0.851562 4.84375 -0.5 C 4.375 -0.144531 3.765625 0.03125 3.015625 0.03125 C 2.492188 0.03125 1.992188 -0.0625 1.515625 -0.25 C 1.035156 -0.445312 0.613281 -0.707031 0.25 -1.03125 L 0.75 -2.015625 C 1.082031 -1.703125 1.453125 -1.457031 1.859375 -1.28125 C 2.273438 -1.113281 2.664062 -1.03125 3.03125 -1.03125 C 3.425781 -1.03125 3.734375 -1.101562 3.953125 -1.25 C 4.179688 -1.394531 4.296875 -1.597656 4.296875 -1.859375 C 4.296875 -2.085938 4.203125 -2.28125 4.015625 -2.4375 C 3.835938 -2.59375 3.613281 -2.707031 3.34375 -2.78125 C 3.070312 -2.851562 2.78125 -2.941406 2.46875 -3.046875 C 2.15625 -3.160156 1.863281 -3.273438 1.59375 -3.390625 C 1.320312 -3.515625 1.09375 -3.707031 0.90625 -3.96875 C 0.726562 -4.226562 0.640625 -4.546875 0.640625 -4.921875 C 0.640625 -5.492188 0.863281 -5.953125 1.3125 -6.296875 C 1.769531 -6.640625 2.367188 -6.8125 3.109375 -6.8125 Z M 3.109375 -6.8125 "/></g></g><g style="fill:#ffffff;fill-opacity:1;"><g transform="translate(113.915823, 73.898625)"><path style="stroke:none" d="M 5.5 -5.734375 L 3.359375 -5.734375 L 3.359375 0 L 2.21875 0 L 2.21875 -5.734375 L 0.09375 -5.734375 L 0.09375 -6.765625 L 5.5 -6.765625 Z M 5.5 -5.734375 "/></g></g><g style="fill:#ffffff;fill-opacity:1;"><g transform="translate(120.472071, 73.898625)"><path style="stroke:none" d="M 5.71875 -5.734375 L 2.03125 -5.734375 L 2.03125 -3.90625 L 5.328125 -3.90625 L 5.328125 -2.890625 L 2.03125 -2.890625 L 2.03125 -1.03125 L 5.828125 -1.03125 L 5.828125 0 L 0.890625 0 L 0.890625 -6.765625 L 5.71875 -6.765625 Z M 5.71875 -5.734375 "/></g></g><g style="fill:#ffffff;fill-opacity:1;"><g transform="translate(127.771816, 73.898625)"><path style="stroke:none" d="M 8.03125 0 L 6.984375 0 L 6.96875 -5.046875 L 4.84375 -0.703125 L 4.09375 -0.703125 L 1.953125 -5.046875 L 1.953125 0 L 0.890625 0 L 0.890625 -6.765625 L 2.234375 -6.765625 L 4.46875 -2.265625 L 6.6875 -6.765625 L 8.03125 -6.765625 Z M 8.03125 0 "/></g></g><g style="fill:#ffffff;fill-opacity:1;"><g transform="translate(137.668965, 73.898625)"><path style="stroke:none" d=""/></g></g><g style="fill:#ffffff;fill-opacity:1;"><g transform="translate(141.125719, 73.898625)"><path style="stroke:none" d="M 2.03125 0 L 0.890625 0 L 0.890625 -6.765625 L 2.03125 -6.765625 Z M 2.03125 0 "/></g></g><g style="fill:#ffffff;fill-opacity:1;"><g transform="translate(145.007324, 73.898625)"><path style="stroke:none" d="M 6.75 0 L 5.625 0 L 2.03125 -4.84375 L 2.03125 0 L 0.890625 0 L 0.890625 -6.765625 L 2.015625 -6.765625 L 5.625 -1.90625 L 5.625 -6.765625 L 6.75 -6.765625 Z M 6.75 0 "/></g></g><g style="fill:#ffffff;fill-opacity:1;"><g transform="translate(153.620258, 73.898625)"><path style="stroke:none" d="M 5.421875 -5.734375 L 2.03125 -5.734375 L 2.03125 -3.78125 L 5.09375 -3.78125 L 5.09375 -2.765625 L 2.03125 -2.765625 L 2.03125 0 L 0.890625 0 L 0.890625 -6.765625 L 5.421875 -6.765625 Z M 5.421875 -5.734375 "/></g></g><g style="fill:#ffffff;fill-opacity:1;"><g transform="translate(160.137892, 73.898625)"><path style="stroke:none" d="M 1.359375 -5.796875 C 2.046875 -6.453125 2.894531 -6.78125 3.90625 -6.78125 C 4.914062 -6.78125 5.765625 -6.453125 6.453125 -5.796875 C 7.148438 -5.148438 7.5 -4.34375 7.5 -3.375 C 7.5 -2.414062 7.148438 -1.601562 6.453125 -0.9375 C 5.765625 -0.28125 4.914062 0.046875 3.90625 0.046875 C 2.894531 0.046875 2.046875 -0.28125 1.359375 -0.9375 C 0.671875 -1.601562 0.328125 -2.414062 0.328125 -3.375 C 0.328125 -4.34375 0.671875 -5.148438 1.359375 -5.796875 Z M 3.921875 -5.765625 C 3.253906 -5.765625 2.679688 -5.535156 2.203125 -5.078125 C 1.722656 -4.617188 1.484375 -4.050781 1.484375 -3.375 C 1.484375 -2.707031 1.722656 -2.140625 2.203125 -1.671875 C 2.679688 -1.203125 3.253906 -0.96875 3.921875 -0.96875 C 4.585938 -0.96875 5.15625 -1.203125 5.625 -1.671875 C 6.09375 -2.140625 6.328125 -2.707031 6.328125 -3.375 C 6.328125 -4.050781 6.09375 -4.617188 5.625 -5.078125 C 5.15625 -5.535156 4.585938 -5.765625 3.921875 -5.765625 Z M 3.921875 -5.765625 "/></g></g><g style="fill:#ffffff;fill-opacity:1;"><g transform="translate(168.92462, 73.898625)"><path style="stroke:none" d="M 5.171875 0 L 3.9375 -2.046875 C 3.875 -2.035156 3.769531 -2.03125 3.625 -2.03125 L 2.03125 -2.03125 L 2.03125 0 L 0.890625 0 L 0.890625 -6.765625 L 3.625 -6.765625 C 4.488281 -6.765625 5.160156 -6.5625 5.640625 -6.15625 C 6.117188 -5.75 6.359375 -5.179688 6.359375 -4.453125 C 6.359375 -3.910156 6.234375 -3.453125 5.984375 -3.078125 C 5.742188 -2.703125 5.398438 -2.429688 4.953125 -2.265625 L 6.46875 0 Z M 2.03125 -3.0625 L 3.625 -3.0625 C 4.71875 -3.0625 5.265625 -3.515625 5.265625 -4.421875 C 5.265625 -5.296875 4.71875 -5.734375 3.625 -5.734375 L 2.03125 -5.734375 Z M 2.03125 -3.0625 "/></g></g><g style="fill:#ffffff;fill-opacity:1;"><g transform="translate(176.871298, 73.898625)"><path style="stroke:none" d="M 8.03125 0 L 6.984375 0 L 6.96875 -5.046875 L 4.84375 -0.703125 L 4.09375 -0.703125 L 1.953125 -5.046875 L 1.953125 0 L 0.890625 0 L 0.890625 -6.765625 L 2.234375 -6.765625 L 4.46875 -2.265625 L 6.6875 -6.765625 L 8.03125 -6.765625 Z M 8.03125 0 "/></g></g><g style="fill:#ffffff;fill-opacity:1;"><g transform="translate(186.768446, 73.898625)"><path style="stroke:none" d="M 5.25 -1.53125 L 1.84375 -1.53125 L 1.203125 0 L 0.015625 0 L 3 -6.765625 L 4.15625 -6.765625 L 7.109375 0 L 5.90625 0 Z M 4.8125 -2.546875 L 3.546875 -5.546875 L 2.265625 -2.546875 Z M 4.8125 -2.546875 "/></g></g><g style="fill:#ffffff;fill-opacity:1;"><g transform="translate(194.859965, 73.898625)"><path style="stroke:none" d="M 3.109375 -6.8125 C 3.984375 -6.8125 4.769531 -6.578125 5.46875 -6.109375 L 5 -5.109375 C 4.3125 -5.523438 3.648438 -5.734375 3.015625 -5.734375 C 2.679688 -5.734375 2.414062 -5.671875 2.21875 -5.546875 C 2.019531 -5.429688 1.921875 -5.257812 1.921875 -5.03125 C 1.921875 -4.800781 2.007812 -4.609375 2.1875 -4.453125 C 2.375 -4.296875 2.601562 -4.179688 2.875 -4.109375 C 3.144531 -4.035156 3.4375 -3.941406 3.75 -3.828125 C 4.0625 -3.710938 4.351562 -3.59375 4.625 -3.46875 C 4.894531 -3.34375 5.117188 -3.144531 5.296875 -2.875 C 5.472656 -2.613281 5.5625 -2.289062 5.5625 -1.90625 C 5.5625 -1.320312 5.320312 -0.851562 4.84375 -0.5 C 4.375 -0.144531 3.765625 0.03125 3.015625 0.03125 C 2.492188 0.03125 1.992188 -0.0625 1.515625 -0.25 C 1.035156 -0.445312 0.613281 -0.707031 0.25 -1.03125 L 0.75 -2.015625 C 1.082031 -1.703125 1.453125 -1.457031 1.859375 -1.28125 C 2.273438 -1.113281 2.664062 -1.03125 3.03125 -1.03125 C 3.425781 -1.03125 3.734375 -1.101562 3.953125 -1.25 C 4.179688 -1.394531 4.296875 -1.597656 4.296875 -1.859375 C 4.296875 -2.085938 4.203125 -2.28125 4.015625 -2.4375 C 3.835938 -2.59375 3.613281 -2.707031 3.34375 -2.78125 C 3.070312 -2.851562 2.78125 -2.941406 2.46875 -3.046875 C 2.15625 -3.160156 1.863281 -3.273438 1.59375 -3.390625 C 1.320312 -3.515625 1.09375 -3.707031 0.90625 -3.96875 C 0.726562 -4.226562 0.640625 -4.546875 0.640625 -4.921875 C 0.640625 -5.492188 0.863281 -5.953125 1.3125 -6.296875 C 1.769531 -6.640625 2.367188 -6.8125 3.109375 -6.8125 Z M 3.109375 -6.8125 "/></g></g><g style="fill:#ffffff;fill-opacity:1;"><g transform="translate(201.831413, 73.898625)"><path style="stroke:none" d="M 2.03125 0 L 0.890625 0 L 0.890625 -6.765625 L 2.03125 -6.765625 Z M 2.03125 0 "/></g></g><g style="fill:#ffffff;fill-opacity:1;"><g transform="translate(205.713018, 73.898625)"><path style="stroke:none" d=""/></g></g><g style="fill:#ffffff;fill-opacity:1;"><g transform="translate(209.169772, 73.898625)"><path style="stroke:none" d="M 5.171875 0 L 3.9375 -2.046875 C 3.875 -2.035156 3.769531 -2.03125 3.625 -2.03125 L 2.03125 -2.03125 L 2.03125 0 L 0.890625 0 L 0.890625 -6.765625 L 3.625 -6.765625 C 4.488281 -6.765625 5.160156 -6.5625 5.640625 -6.15625 C 6.117188 -5.75 6.359375 -5.179688 6.359375 -4.453125 C 6.359375 -3.910156 6.234375 -3.453125 5.984375 -3.078125 C 5.742188 -2.703125 5.398438 -2.429688 4.953125 -2.265625 L 6.46875 0 Z M 2.03125 -3.0625 L 3.625 -3.0625 C 4.71875 -3.0625 5.265625 -3.515625 5.265625 -4.421875 C 5.265625 -5.296875 4.71875 -5.734375 3.625 -5.734375 L 2.03125 -5.734375 Z M 2.03125 -3.0625 "/></g></g><g style="fill:#ffffff;fill-opacity:1;"><g transform="translate(217.116449, 73.898625)"><path style="stroke:none" d="M 6.640625 -6.765625 L 6.640625 -2.796875 C 6.640625 -1.921875 6.375 -1.226562 5.84375 -0.71875 C 5.320312 -0.207031 4.601562 0.046875 3.6875 0.046875 C 2.78125 0.046875 2.0625 -0.207031 1.53125 -0.71875 C 1.007812 -1.226562 0.75 -1.921875 0.75 -2.796875 L 0.75 -6.765625 L 1.890625 -6.765625 L 1.890625 -2.796875 C 1.890625 -2.234375 2.050781 -1.785156 2.375 -1.453125 C 2.707031 -1.128906 3.148438 -0.96875 3.703125 -0.96875 C 4.253906 -0.96875 4.691406 -1.128906 5.015625 -1.453125 C 5.335938 -1.773438 5.5 -2.222656 5.5 -2.796875 L 5.5 -6.765625 Z M 6.640625 -6.765625 "/></g></g><g style="fill:#ffffff;fill-opacity:1;"><g transform="translate(225.459014, 73.898625)"><path style="stroke:none" d="M 5.25 -1.53125 L 1.84375 -1.53125 L 1.203125 0 L 0.015625 0 L 3 -6.765625 L 4.15625 -6.765625 L 7.109375 0 L 5.90625 0 Z M 4.8125 -2.546875 L 3.546875 -5.546875 L 2.265625 -2.546875 Z M 4.8125 -2.546875 "/></g></g><g style="fill:#ffffff;fill-opacity:1;"><g transform="translate(233.550533, 73.898625)"><path style="stroke:none" d="M 6.75 0 L 5.625 0 L 2.03125 -4.84375 L 2.03125 0 L 0.890625 0 L 0.890625 -6.765625 L 2.015625 -6.765625 L 5.625 -1.90625 L 5.625 -6.765625 L 6.75 -6.765625 Z M 6.75 0 "/></g></g><g style="fill:#ffffff;fill-opacity:1;"><g transform="translate(242.163468, 73.898625)"><path style="stroke:none" d="M 5.515625 -3.328125 L 6.515625 -3.328125 L 6.515625 -0.828125 C 6.160156 -0.566406 5.742188 -0.351562 5.265625 -0.1875 C 4.796875 -0.03125 4.332031 0.046875 3.875 0.046875 C 2.882812 0.046875 2.046875 -0.28125 1.359375 -0.9375 C 0.671875 -1.601562 0.328125 -2.414062 0.328125 -3.375 C 0.328125 -4.34375 0.671875 -5.148438 1.359375 -5.796875 C 2.054688 -6.453125 2.921875 -6.78125 3.953125 -6.78125 C 4.421875 -6.78125 4.882812 -6.695312 5.34375 -6.53125 C 5.8125 -6.363281 6.210938 -6.132812 6.546875 -5.84375 L 5.90625 -5 C 5.34375 -5.519531 4.691406 -5.78125 3.953125 -5.78125 C 3.265625 -5.78125 2.679688 -5.546875 2.203125 -5.078125 C 1.722656 -4.617188 1.484375 -4.050781 1.484375 -3.375 C 1.484375 -2.695312 1.722656 -2.125 2.203125 -1.65625 C 2.679688 -1.195312 3.265625 -0.96875 3.953125 -0.96875 C 4.472656 -0.96875 4.992188 -1.125 5.515625 -1.4375 Z M 5.515625 -3.328125 "/></g></g><g style="fill:#ffffff;fill-opacity:1;"><g transform="translate(250.361202, 73.898625)"><path style="stroke:none" d=""/></g></g><g style="fill:#ffffff;fill-opacity:1;"><g transform="translate(253.817957, 73.898625)"><path style="stroke:none" d="M 0.890625 -6.765625 L 3.828125 -6.765625 C 4.523438 -6.765625 5.078125 -6.613281 5.484375 -6.3125 C 5.890625 -6.007812 6.09375 -5.59375 6.09375 -5.0625 C 6.09375 -4.6875 5.984375 -4.363281 5.765625 -4.09375 C 5.554688 -3.832031 5.269531 -3.65625 4.90625 -3.5625 C 5.351562 -3.488281 5.707031 -3.300781 5.96875 -3 C 6.226562 -2.695312 6.359375 -2.316406 6.359375 -1.859375 C 6.359375 -1.273438 6.140625 -0.816406 5.703125 -0.484375 C 5.265625 -0.160156 4.660156 0 3.890625 0 L 0.890625 0 Z M 2.03125 -5.75 L 2.03125 -3.953125 L 3.765625 -3.953125 C 4.128906 -3.953125 4.410156 -4.03125 4.609375 -4.1875 C 4.816406 -4.351562 4.921875 -4.578125 4.921875 -4.859375 C 4.921875 -5.148438 4.816406 -5.367188 4.609375 -5.515625 C 4.410156 -5.671875 4.128906 -5.75 3.765625 -5.75 Z M 2.03125 -2.953125 L 2.03125 -1.015625 L 3.765625 -1.015625 C 4.210938 -1.015625 4.5625 -1.097656 4.8125 -1.265625 C 5.0625 -1.441406 5.1875 -1.6875 5.1875 -2 C 5.1875 -2.289062 5.0625 -2.519531 4.8125 -2.6875 C 4.5625 -2.863281 4.210938 -2.953125 3.765625 -2.953125 Z M 2.03125 -2.953125 "/></g></g><g style="fill:#ffffff;fill-opacity:1;"><g transform="translate(261.600491, 73.898625)"><path style="stroke:none" d="M 5.25 -1.53125 L 1.84375 -1.53125 L 1.203125 0 L 0.015625 0 L 3 -6.765625 L 4.15625 -6.765625 L 7.109375 0 L 5.90625 0 Z M 4.8125 -2.546875 L 3.546875 -5.546875 L 2.265625 -2.546875 Z M 4.8125 -2.546875 "/></g></g><g style="fill:#ffffff;fill-opacity:1;"><g transform="translate(269.692011, 73.898625)"><path style="stroke:none" d="M 3.875 -6.78125 C 4.351562 -6.78125 4.816406 -6.6875 5.265625 -6.5 C 5.722656 -6.320312 6.117188 -6.070312 6.453125 -5.75 L 5.78125 -4.921875 C 5.539062 -5.179688 5.25 -5.390625 4.90625 -5.546875 C 4.570312 -5.703125 4.238281 -5.78125 3.90625 -5.78125 C 3.226562 -5.78125 2.65625 -5.546875 2.1875 -5.078125 C 1.71875 -4.617188 1.484375 -4.0625 1.484375 -3.40625 C 1.484375 -2.726562 1.71875 -2.160156 2.1875 -1.703125 C 2.65625 -1.242188 3.226562 -1.015625 3.90625 -1.015625 C 4.601562 -1.015625 5.226562 -1.28125 5.78125 -1.8125 L 6.453125 -1.0625 C 6.109375 -0.71875 5.703125 -0.445312 5.234375 -0.25 C 4.773438 -0.0507812 4.3125 0.046875 3.84375 0.046875 C 2.851562 0.046875 2.019531 -0.28125 1.34375 -0.9375 C 0.664062 -1.601562 0.328125 -2.421875 0.328125 -3.390625 C 0.328125 -4.347656 0.671875 -5.148438 1.359375 -5.796875 C 2.046875 -6.453125 2.882812 -6.78125 3.875 -6.78125 Z M 3.875 -6.78125 "/></g></g><g style="fill:#ffffff;fill-opacity:1;"><g transform="translate(277.387643, 73.898625)"><path style="stroke:none" d="M 5.25 -1.53125 L 1.84375 -1.53125 L 1.203125 0 L 0.015625 0 L 3 -6.765625 L 4.15625 -6.765625 L 7.109375 0 L 5.90625 0 Z M 4.8125 -2.546875 L 3.546875 -5.546875 L 2.265625 -2.546875 Z M 4.8125 -2.546875 "/></g></g><g style="fill:#ffffff;fill-opacity:1;"><g transform="translate(95.570596, 58.439774)"><path style="stroke:none" d="M 16.34375 -34.140625 C 21.394531 -34.140625 25.832031 -32.882812 29.65625 -30.375 L 26.421875 -23.671875 C 24.648438 -24.703125 22.753906 -25.546875 20.734375 -26.203125 C 18.710938 -26.867188 17.007812 -27.203125 15.625 -27.203125 C 13.144531 -27.203125 11.90625 -26.378906 11.90625 -24.734375 C 11.90625 -23.671875 12.515625 -22.816406 13.734375 -22.171875 C 14.960938 -21.535156 16.453125 -20.984375 18.203125 -20.515625 C 19.953125 -20.046875 21.703125 -19.484375 23.453125 -18.828125 C 25.210938 -18.171875 26.703125 -17.101562 27.921875 -15.625 C 29.140625 -14.144531 29.75 -12.28125 29.75 -10.03125 C 29.75 -6.78125 28.476562 -4.242188 25.9375 -2.421875 C 23.394531 -0.609375 20.164062 0.296875 16.25 0.296875 C 13.445312 0.296875 10.679688 -0.1875 7.953125 -1.15625 C 5.222656 -2.125 2.84375 -3.441406 0.8125 -5.109375 L 4.140625 -11.71875 C 5.847656 -10.238281 7.859375 -9.023438 10.171875 -8.078125 C 12.484375 -7.128906 14.539062 -6.65625 16.34375 -6.65625 C 17.726562 -6.65625 18.804688 -6.90625 19.578125 -7.40625 C 20.347656 -7.90625 20.734375 -8.632812 20.734375 -9.59375 C 20.734375 -10.53125 20.289062 -11.3125 19.40625 -11.9375 C 18.519531 -12.5625 17.414062 -13.023438 16.09375 -13.328125 C 14.78125 -13.640625 13.351562 -14.050781 11.8125 -14.5625 C 10.269531 -15.070312 8.835938 -15.632812 7.515625 -16.25 C 6.203125 -16.863281 5.101562 -17.835938 4.21875 -19.171875 C 3.332031 -20.503906 2.890625 -22.101562 2.890625 -23.96875 C 2.890625 -27.050781 4.117188 -29.515625 6.578125 -31.359375 C 9.035156 -33.210938 12.289062 -34.140625 16.34375 -34.140625 Z M 16.34375 -34.140625 "/></g></g><g style="fill:#ffffff;fill-opacity:1;"><g transform="translate(126.624758, 58.439774)"><path style="stroke:none" d="M 11.953125 0 L 3.375 0 L 3.375 -33.75 L 11.953125 -33.75 Z M 11.953125 0 "/></g></g><g style="fill:#ffffff;fill-opacity:1;"><g transform="translate(141.958948, 58.439774)"><path style="stroke:none" d="M 23.71875 0 L 18.703125 -9.5 L 11.953125 -9.5 L 11.953125 0 L 3.375 0 L 3.375 -33.75 L 18.46875 -33.75 C 22.9375 -33.75 26.390625 -32.726562 28.828125 -30.6875 C 31.273438 -28.644531 32.5 -25.742188 32.5 -21.984375 C 32.5 -16.773438 30.457031 -13.160156 26.375 -11.140625 L 33.46875 0 Z M 11.953125 -16.25 L 18.46875 -16.25 C 20.332031 -16.25 21.773438 -16.710938 22.796875 -17.640625 C 23.828125 -18.578125 24.34375 -19.929688 24.34375 -21.703125 C 24.34375 -23.429688 23.828125 -24.742188 22.796875 -25.640625 C 21.773438 -26.546875 20.332031 -27 18.46875 -27 L 11.953125 -27 Z M 11.953125 -16.25 "/></g></g><g style="fill:#ffffff;fill-opacity:1;"><g transform="translate(176.870769, 58.439774)"><path style="stroke:none" d="M 33.75 -33.75 L 33.75 -14.171875 C 33.75 -9.703125 32.363281 -6.15625 29.59375 -3.53125 C 26.832031 -0.914062 23.09375 0.390625 18.375 0.390625 C 13.613281 0.390625 9.828125 -0.914062 7.015625 -3.53125 C 4.203125 -6.15625 2.796875 -9.703125 2.796875 -14.171875 L 2.796875 -33.75 L 11.375 -33.75 L 11.375 -14.171875 C 11.375 -11.921875 12.023438 -10.128906 13.328125 -8.796875 C 14.628906 -7.460938 16.328125 -6.796875 18.421875 -6.796875 C 20.472656 -6.796875 22.117188 -7.453125 23.359375 -8.765625 C 24.597656 -10.085938 25.21875 -11.890625 25.21875 -14.171875 L 25.21875 -33.75 Z M 33.75 -33.75 "/></g></g><g style="fill:#ffffff;fill-opacity:1;"><g transform="translate(213.422085, 58.439774)"><path style="stroke:none" d="M 3.375 -33.75 L 19.328125 -33.75 C 23.128906 -33.75 26.144531 -32.984375 28.375 -31.453125 C 30.613281 -29.929688 31.734375 -27.882812 31.734375 -25.3125 C 31.734375 -23.539062 31.21875 -21.988281 30.1875 -20.65625 C 29.15625 -19.320312 27.738281 -18.398438 25.9375 -17.890625 C 28.0625 -17.472656 29.75 -16.492188 31 -14.953125 C 32.257812 -13.410156 32.890625 -11.546875 32.890625 -9.359375 C 32.890625 -6.492188 31.722656 -4.21875 29.390625 -2.53125 C 27.054688 -0.84375 23.898438 0 19.921875 0 L 3.375 0 Z M 11.90625 -27.203125 L 11.90625 -20.25 L 18.859375 -20.25 C 20.109375 -20.25 21.101562 -20.5625 21.84375 -21.1875 C 22.582031 -21.8125 22.953125 -22.671875 22.953125 -23.765625 C 22.953125 -24.828125 22.582031 -25.664062 21.84375 -26.28125 C 21.101562 -26.894531 20.109375 -27.203125 18.859375 -27.203125 Z M 11.90625 -14.078125 L 11.90625 -6.609375 L 18.859375 -6.609375 C 20.460938 -6.609375 21.722656 -6.941406 22.640625 -7.609375 C 23.554688 -8.285156 24.015625 -9.222656 24.015625 -10.421875 C 24.015625 -11.546875 23.554688 -12.4375 22.640625 -13.09375 C 21.722656 -13.75 20.460938 -14.078125 18.859375 -14.078125 Z M 11.90625 -14.078125 "/></g></g><g style="fill:#ffffff;fill-opacity:1;"><g transform="translate(247.899917, 58.439774)"><path style="stroke:none" d="M 25.796875 -6.21875 L 11.046875 -6.21875 L 8.578125 0 L -0.234375 0 L 14.328125 -33.75 L 23.140625 -33.75 L 37.375 0 L 28.203125 0 Z M 23.296875 -12.734375 L 18.46875 -25.21875 L 13.546875 -12.734375 Z M 23.296875 -12.734375 "/></g></g></g></svg>